<svg width="878" height="865" viewBox="0 0 878 865" fill="none" xmlns="http://www.w3.org/2000/svg">
<g clip-path="url(#clip0_6_52)">
<path d="M33.9157 864.692C24.5826 864.16 21.5701 863.215 15.0133 858.785C8.87002 854.65 5.1486 849.747 1.89975 841.418C0.186721 836.988 0.0685811 836.161 0.00951103 829.013C-0.049559 822.102 0.127651 820.803 1.66347 816.018C2.84487 812.297 28.0678 761.26 84.5978 648.259C168.182 481.032 368.607 79.7099 380.243 56.0819C389.99 36.4116 393.121 31.686 402.749 22.0576C412.555 12.2519 422.301 6.34494 434.411 2.85981C443.153 0.3198 456.621 -0.743461 463.473 0.55608C471.861 2.15097 473.279 2.50539 475.464 3.21423C482.73 5.57703 491.59 9.83008 496.552 13.3152C508.425 21.585 518.467 32.513 524.079 43.3819C526.619 48.2847 621.663 239.199 638.025 272.278C645.35 287.046 664.075 324.614 679.551 355.685L707.787 412.274H702.707C691.838 412.274 671.104 414.283 659.763 416.468C656.159 417.118 648.126 418.772 645.291 419.363C635.485 421.489 617.35 426.983 610.794 429.759C608.844 430.645 606.422 431.649 605.418 432.063C594.372 436.67 581.259 443.227 572.812 448.366C562.77 454.45 547.943 464.728 542.509 469.336C541.682 470.045 538.492 472.703 535.42 475.243C529.454 480.205 518.703 490.188 513.919 495.149C504.231 505.31 498.561 511.748 492.24 519.782C489.877 522.853 487.751 525.511 487.574 525.689C487.396 525.866 486.392 527.165 485.329 528.642C484.266 530.119 482.494 532.482 481.43 533.959C476.114 541.165 467.017 555.46 460.579 566.742C454.908 576.666 443.153 599.763 397.019 691.971C377.644 730.662 360.16 765.218 358.21 768.762C336.354 807.925 302.625 838.819 265.766 853.409C252.416 858.666 240.956 861.62 223.531 864.16C218.687 864.869 46.1432 865.341 33.9157 864.692Z" fill="#003F5F"/>
<path d="M467.667 863.274C465.658 861.679 465.008 860.084 464.063 854.413C460.814 835.747 458.629 810.702 458.629 792.39C458.629 783.411 459.101 774.492 460.46 757.834C461.346 746.906 462.941 735.092 465.658 720.029C468.612 703.844 476.232 675.727 481.371 662.14C481.902 660.664 482.907 658.006 483.556 656.233C484.206 654.461 485.269 651.862 485.86 650.504C486.51 649.086 486.983 647.609 486.983 647.196C486.983 646.782 487.219 646.192 487.455 645.896C487.75 645.542 488.341 644.36 488.755 643.238C489.759 640.639 492.476 634.555 494.721 629.947C495.666 627.998 496.434 626.108 496.434 625.694C496.434 625.281 496.729 624.926 497.024 624.926C497.379 624.926 497.615 624.572 497.615 624.099C497.615 623.095 502.813 613.112 509.016 602.184C518.408 585.586 534.179 563.493 546.584 549.612C553.614 541.815 572.162 523.917 578.836 518.541C590.709 509.09 602.937 500.702 612.802 495.327C617.941 492.491 629.578 486.702 632.886 485.285C638.143 483.04 640.86 481.859 641.864 481.327C642.455 481.032 643.341 480.795 643.813 480.795C644.286 480.795 645.172 480.559 645.763 480.264C648.303 478.964 652.32 477.606 660.353 475.42C661.653 475.066 663.366 474.534 664.193 474.298C666.437 473.589 674.175 471.817 679.846 470.754C681.795 470.399 684.572 469.868 686.049 469.572C687.525 469.277 691.778 468.745 695.5 468.391C699.221 468.036 704.419 467.446 706.959 467.15C709.558 466.855 716.765 466.619 723.026 466.619H734.368L735.845 468.332C737.676 470.517 818.956 633.432 818.956 634.968C818.956 635.264 819.192 635.559 819.429 635.559C819.724 635.559 820.315 636.622 820.728 637.922C821.142 639.221 821.732 640.285 822.028 640.285C822.264 640.285 822.5 640.816 822.5 641.466C822.5 642.116 822.796 642.647 823.091 642.647C823.445 642.647 823.682 643.002 823.682 643.415C823.682 643.77 834.61 666.039 847.9 692.798C871.765 740.704 874.718 747.26 876.195 755.471C878.853 770.888 878.676 777.15 874.954 792.685C870.761 810.406 858.592 829.604 843.825 841.772C837.032 847.325 826.812 853.705 820.728 856.126C819.251 856.717 817.302 857.485 816.298 857.958C810.568 860.379 799.522 863.097 790.662 864.16C787.413 864.514 731.296 864.751 627.628 864.751H469.557L467.667 863.274Z" fill="#00C483"/>
</g>
<defs>
<clipPath id="clip0_6_52">
<rect width="878" height="865" fill="white"/>
</clipPath>
</defs>
</svg>
